<?xml version="1.0" encoding="UTF-8"?>
<svg width="20px" height="18px" viewBox="0 0 20 18" version="1.1" xmlns="http://www.w3.org/2000/svg" xmlns:xlink="http://www.w3.org/1999/xlink">
    <!-- Generator: Sketch 59.1 (86144) - https://sketch.com -->
    <title>收藏</title>
    <desc>Created with Sketch.</desc>
    <g id="页面-1" stroke="none" stroke-width="1" fill="none" fill-rule="evenodd">
        <g id="1时间线-查看图片" transform="translate(-339.000000, -57.000000)" fill="#FE5A4D">
            <g id="导航栏" transform="translate(0.000000, 44.000000)">
                <g id="收藏" transform="translate(339.000000, 13.000000)">
                    <path d="M14.397758,0.00124677162 C15.8473978,0.0169485753 17.1872503,0.656236296 18.3792261,1.90340813 C20.9424222,4.58393033 20.0574026,8.65069748 18.5226217,11.317761 C15.715205,16.2010219 10.5283178,17.8856011 10.3087433,17.9551377 C10.244514,17.974578 10.1772973,17.9880367 10.1097487,17.9948491 L10.0085088,18 L10.0085088,18 C9.9054432,18 9.78893428,17.9842982 9.69259037,17.9528946 C9.47301588,17.883358 4.28612867,16.1987788 1.4764714,11.317761 C-0.0583094838,8.65069748 -0.941088561,4.58393033 1.61986699,1.90340813 C2.8118428,0.656236296 4.14945475,0.0169485753 5.60133506,0.00124677162 C7.05545592,-0.0323999505 8.56783125,0.615860229 9.99954655,1.8383578 C11.4335024,0.618103344 12.9369155,-0.00996880243 14.397758,0.00124677162 Z"></path>
                </g>
            </g>
        </g>
    </g>
</svg>